<svg xmlns="http://www.w3.org/2000/svg" xml:space="preserve" width="1000px" height="213px" x="0px" y="0px" viewBox="0 0 1000 213"><path fill="#E60012" d="M150.316 194.304c-23.951 23.947-63.147 23.947-87.1 0L18.968 150.05C-4.988 126.1-4.988 86.9 18.964 62.954l44.252-44.252c23.953-23.954 63.149-23.954 87.1 0l44.25 44.252c23.951 23.947 23.951 63.146 0 87.096l-44.25 44.254z"/><path fill="#FFF" d="M80.521 171.507a6.523 6.523 0 0 1-6.532-6.271 6.515 6.515 0 0 1 1.722-4.704 6.459 6.459 0 0 1 4.547-2.107c3.597-.171 6.658 2.656 6.814 6.271.143 3.599-2.669 6.656-6.272 6.805-.091-.001-.186.006-.279.006M104.33 50.709c-3.588 0-6.463 1.128-8.79 3.438-5.018 4.987-7.649 15.279-7.417 28.984.282 16.897 4.306 50.04 17.591 67.101 2.158 2.769 4.469 4.973 6.887 6.567 2.337 1.548 4.964 3.058 9.063 3.058 1.11 0 2.304-.111 3.551-.334 7.619-1.825 17.164-10.314 24.26-21.598a5.851 5.851 0 0 1 4.976-2.75c1.102 0 2.178.312 3.115.901a5.844 5.844 0 0 1 2.603 3.663 5.833 5.833 0 0 1-.757 4.43c-8.976 14.274-20.829 24.303-31.702 26.815-.035.019-.15.037-.269.063-1.998.364-3.958.55-5.824.55-7.011 0-11.958-2.672-15.487-5.002-3.484-2.301-6.738-5.38-9.673-9.143C77.75 133.424 76.47 88.39 76.383 83.331c-.2-11.986 1.527-28.22 10.888-37.516 4.567-4.533 10.289-6.827 17.012-6.827h1.089c6.736 0 12.471 2.294 17.037 6.827 9.363 9.296 11.086 25.529 10.884 37.516-.213 12.487-2.501 36.676-15.448 58.363a5.907 5.907 0 0 1-5.046 2.856 5.852 5.852 0 0 1-3.004-.827c-2.771-1.658-3.683-5.269-2.029-8.052 9.063-15.168 13.442-31.865 13.786-52.541.234-13.708-2.397-24.001-7.415-28.984-2.323-2.312-5.195-3.438-8.773-3.438h-1.034z"/><g fill="#E2231A"><path d="M432.599 62.527V149h12.933V62.527h-12.933zM411.89 93.733h-16.187v7.708h16.187v18.187c-3.154 1.239-5.981 1.919-10.18 1.919h-18.393a3.12 3.12 0 0 1-3.113-3.113V75.378h23.624v-6.224H366.81v52.422a6.203 6.203 0 0 0 6.198 6.204h28.702c4.365 0 7.896-.779 10.18-2.215V149h12.938V62.527H411.89v31.206zM315.048 108.188v-8.52h28.433v-6.19h-53.586a3.116 3.116 0 0 1-3.129-3.121v-5.434h55.563V63.985h-68.902v6.217h55.538v8.473h-55.538v14.788a6.196 6.196 0 0 0 6.2 6.206h22.014v8.52h-35.447v6.228h84.516v-6.228h-35.662zm.367 10.205h-14.979c-3.961 16.441-23.433 24.73-30.588 25.754l3.732 5.528c7.298-.891 23.947-6.864 34.354-18.232 10.404 11.368 27.04 17.342 34.344 18.232l3.729-5.528c-7.144-1.024-26.627-9.313-30.592-25.754zM468.074 64.085h68.57v17.604c0 5.22-.727 11.604-3.31 16.055h11.978v6.189h-84.36v-6.189h60.224c1.443-4.545 1.956-10.443 1.956-15.671V70.376h-55.058v-6.291zm69.599 49.807v20.89h-55.675v6.093c0 1.937.71 2.608 2.569 2.608h54.444v6.386h-63.819c-3.82 0-7.119-2.709-7.119-6.386V128.5h55.781v-8.223h-55.781v-6.386h69.6zM602.431 112.716v15.813h34.332v6.757h-84.408v-6.757h36.051v-15.813h-21.758c-3.814 0-7.113-2.82-7.113-6.653V84.91h56.091V70.907h-56.091v-6.658h69.597v27.405h-55.983v11.584c0 2.024.824 2.729 2.68 2.729h54.643v6.749h-28.041zM650.633 103.429c-5.381 0-7.814-2.703-7.814-7.447V63.974h12.986v13.831h22.081V63.974h12.689v15.953h16.904V62.521h12.987v43.909h-12.987V86.41h-16.904v17.018h-39.942zm56.846 24.084v-9.862h-51.86v-6.481h64.848v22.537h-51.769v7.539c0 1.454.594 2.219 2.345 2.219h50.989v6.39h-58.12c-5.369 0-8.204-3.095-8.204-7.837v-14.504h51.771zm-51.674-32.685c0 1.449.59 2.217 2.342 2.217h19.739V84.187h-22.081v10.641zM781.732 112.671v15.814h34.362v6.756h-84.456v-6.756h36.076v-15.814h-21.762c-3.818 0-7.113-2.827-7.113-6.652V84.858h56.087V70.855H738.84v-6.649h69.593v27.405h-55.986v11.586c0 2.017.827 2.72 2.683 2.72h54.646v6.754h-28.044zM824.465 64.293h53.189v6.445h-19.739v12.008c0 19.541 12.838 33.338 23.917 38.102l-4.86 4.861c-6.219-1.588-18.96-8.831-25.476-19.647-6.322 10.119-18.671 18.059-25.187 19.647l-4.86-4.861c11.376-4.764 22.455-18.561 22.455-36.915V70.738h-19.439v-6.445zm65.73-3.378h13.127v88.805h-13.127V60.915zM999 128.566v6.709h-84.445v-6.709H999zm-50.715-55.958v-8.33h15.064v8.33c0 13.712 17.633 29.353 33.721 33.518l-4.126 5.688c-10.724-1.529-27.435-10.059-37.022-22.448-8.152 12.595-24.141 21.123-35.271 22.545l-4.126-5.683c16.711-4.473 31.76-19.908 31.76-33.62z"/></g></svg>