<svg xmlns="http://www.w3.org/2000/svg" xml:space="preserve" width="813.21613" height="200" viewBox="0 0 813.2161 200"><path fill="#323232" d="M406.503 119.824h-27.83v19.85h23.367v12.187h-23.367v30.974h-12.938v-75.197h40.768zm31.999 52.53c4.84 0 8.936-1.655 12.181-4.954 3.245-3.299 4.904-7.448 4.904-12.4 0-4.95-1.659-9.045-4.904-12.347-3.245-3.3-7.341-4.946-12.181-4.946-4.85 0-8.947 1.647-12.246 4.946-3.35 3.302-5 7.398-5 12.347 0 4.952 1.65 9.101 5 12.4 3.3 3.299 7.395 4.953 12.246 4.953m-21.244 3.454c-5.69-5.582-8.514-12.503-8.514-20.807 0-8.248 2.823-15.166 8.514-20.754 5.648-5.535 12.728-8.3 21.244-8.3 8.462 0 15.533 2.765 21.233 8.3 5.693 5.588 8.516 12.506 8.516 20.754 0 8.304-2.821 15.227-8.516 20.807-5.7 5.59-12.77 8.36-21.233 8.36-8.516 0-15.596-2.77-21.244-8.36m85.134-3.454c4.84 0 8.936-1.654 12.182-4.953 3.245-3.299 4.904-7.448 4.904-12.4 0-4.95-1.66-9.045-4.904-12.347-3.246-3.3-7.342-4.946-12.182-4.946-4.85 0-8.946 1.647-12.245 4.946-3.35 3.302-5.001 7.398-5.001 12.347 0 4.952 1.65 9.101 5 12.4 3.3 3.299 7.396 4.953 12.246 4.953m-21.244 3.454c-5.69-5.582-8.512-12.503-8.512-20.807 0-8.248 2.822-15.166 8.512-20.754 5.648-5.535 12.728-8.3 21.244-8.3 8.463 0 15.534 2.765 21.234 8.3 5.693 5.588 8.515 12.506 8.515 20.754 0 8.304-2.82 15.227-8.515 20.807-5.7 5.59-12.771 8.36-21.234 8.36-8.516 0-15.596-2.77-21.244-8.36m97.47-8.407c3.245-3.299 4.893-7.447 4.893-12.4 0-4.95-1.648-9.045-4.894-12.347-3.246-3.298-7.34-4.949-12.189-4.949-4.95 0-9.045 1.65-12.29 4.95-3.3 3.3-4.947 7.397-4.947 12.346 0 4.953 1.648 9.101 4.946 12.4 3.246 3.299 7.342 4.953 12.291 4.953 4.848 0 8.943-1.653 12.19-4.953m4.893-63.066h12.244v78.5h-12.246v-8.622c-4.84 6.6-11.326 9.9-19.476 9.956-7.825 0-14.369-2.773-19.53-8.36-5.218-5.585-7.824-12.503-7.824-20.808 0-8.248 2.606-15.165 7.824-20.753 5.161-5.535 11.706-8.301 19.53-8.301 8.15 0 14.636 3.298 19.476 9.896zm25.877 74.669c-3.73-3.407-5.584-7.556-5.584-12.51H616.2c0 1.974.744 3.624 2.177 5.007 1.446 1.383 3.256 2.077 5.327 2.077 1.972 0 3.619-.589 5.055-1.704 1.39-1.12 2.078-2.553 2.078-4.205 0-3.46-3.298-6.067-9.85-7.824-10.964-2.77-16.439-8.46-16.439-17.139 0-5.16 1.81-9.202 5.475-12.237 3.624-3.033 8.097-4.522 13.366-4.522 5.476 0 10.002 1.648 13.678 4.893 3.613 3.245 5.422 7.24 5.422 11.977h-12.45c0-3.461-2.768-6.28-6.76-6.28-3.456 0-6.335 2.392-6.335 5.427 0 3.46 3.352 6.066 10.059 7.717 10.809 2.767 16.23 8.407 16.23 16.923 0 5.377-1.856 9.684-5.584 12.826-3.782 3.14-8.46 4.74-14.054 4.74-5.744 0-10.478-1.705-14.207-5.166M387.658 75.08c-7.725 0-14.173-2.2-19.343-6.554-5.221-4.354-7.832-9.758-7.832-16.214h19.343c0 1.951.797 3.652 2.343 5.003 1.545 1.35 3.517 2.053 5.81 2.053 2.078 0 3.888-.55 5.38-1.601 1.44-1.052 2.183-2.353 2.183-3.907 0-3.35-4.155-6.004-12.467-8.004-14.333-3.453-21.473-11.009-21.473-22.57 0-6.054 2.452-11.159 7.408-15.262 4.953-4.106 11.133-6.155 18.543-6.155 7.51 0 13.743 2.1 18.753 6.254 4.956 4.153 7.461 9.36 7.461 15.613H394.53c0-3.55-2.981-6.154-7.087-6.154-3.782 0-6.657 2.152-6.657 5.002 0 3.807 4.05 5.758 11.56 7.807 6.234 1.552 10.657 3.355 15.346 6.707 4.635 3.354 7.14 8.808 7.14 15.613 0 6.357-2.61 11.66-7.778 15.913-5.222 4.304-11.67 6.456-19.396 6.456m63.63-18.853V51.07h-7.68c-3.653 0-6.392 2.31-6.392 5.373 0 3.061 2.738 5.53 6.392 5.53 4.35 0 7.68-2.522 7.68-5.746m17.834 17.512H453.49v-4.837c-3.704 4.138-8.81 6.177-15.2 6.177-5.587 0-10.207-1.717-13.91-5.207-3.709-3.44-5.537-7.736-5.537-12.946 0-5.106 1.88-9.402 5.588-12.89 3.705-3.44 8.327-5.158 13.857-5.158h13V33.83h-28.253V17.662h46.087zm97.64-45.75V73.74h-17.78V34.903h-17.617V73.74h-17.833V34.903h-17.726V73.74h-17.78V17.66h78.407a10.33 10.33 0 0 1 10.33 10.328m46.265-10.328h19.875l-30.67 76.972h-23.208V78.36h10.69l2.31-5.48-22.024-55.219h20.25l11.44 32.871zm51.866 38.567V51.07h-7.68c-3.653 0-6.391 2.31-6.391 5.373 0 3.061 2.737 5.53 6.392 5.53 4.35 0 7.68-2.522 7.68-5.746m17.833 17.512h-15.632v-4.837c-3.704 4.138-8.808 6.177-15.2 6.177-5.585 0-10.207-1.717-13.91-5.207-3.707-3.44-5.535-7.736-5.535-12.946 0-5.106 1.88-9.402 5.586-12.89 3.706-3.44 8.327-5.158 13.858-5.158h13V33.83H636.64V17.662h46.087zm64.014-45.75V73.74H728.91V34.903h-19.498V73.74h-17.78V17.66h44.781a10.33 10.33 0 0 1 10.33 10.328m45.198 25.284c2.31-2.31 3.436-5.21 3.436-8.702 0-3.436-1.126-6.336-3.383-8.647-2.306-2.31-5.154-3.44-8.593-3.44-3.493 0-6.34 1.13-8.647 3.44-2.31 2.31-3.493 5.21-3.493 8.647 0 3.493 1.183 6.392 3.493 8.702 2.307 2.364 5.21 3.547 8.647 3.547 3.383 0 6.23-1.183 8.54-3.547m3.436-35.613h17.836v76.973h-54.684V78.36h36.848V66.594c-4.187 4.19-9.397 6.286-15.627 6.286-7.632 0-13.968-2.689-19.072-8.114-5.101-5.37-7.68-12.083-7.68-20.196 0-8.058 2.579-14.77 7.68-20.198 5.104-5.369 11.44-8.057 19.07-8.057 6.232 0 11.44 2.096 15.629 6.287z"/><path fill="#ff6400" d="M121.245 100.002c0-33.966 16.937-63.97 42.824-82.046H0v164.09h164.07c-25.887-18.071-42.824-48.08-42.824-82.044m99.999-100c-21.262 0-40.971 6.643-57.174 17.956h.018v164.087h-.019c16.204 11.314 35.913 17.956 57.175 17.956 55.226 0 100-44.773 100-100S276.47 0 221.243 0"/><path fill="#fff" d="M164.086 17.958h-.018c-25.887 18.073-42.824 48.08-42.824 82.045s16.937 63.97 42.824 82.042h.018z"/></svg>