<svg xmlns="http://www.w3.org/2000/svg" id="_레이어_2" viewBox="0 0 133.94 52.83"><defs><style>.cls-1{fill:#555658}</style></defs><g id="Layer_1"><path d="M63.49 7.27h6.15v2.65h.08c1.16-1.97 3.77-3.21 6.08-3.21 6.45 0 6.97 4.7 6.97 7.49v12.42h-6.34v-9.36c0-2.65.3-5.33-3.17-5.33-2.39 0-3.43 2.01-3.43 4.14v10.55h-6.34zM91.11 20.32c0 .97.41 1.68 1.04 2.16.6.45 1.45.67 2.35.67 1.23 0 2.98-.52 2.98-2.05s-1.97-1.79-3.09-2.05c-3.99-1.01-8.98-1.12-8.98-6.34 0-4.66 5.03-5.93 8.84-5.93 4.25 0 8.69 1.23 8.91 6.26h-5.85c0-.82-.3-1.34-.82-1.68s-1.23-.49-2.01-.49c-1.04 0-2.72.11-2.72 1.45 0 1.83 4.25 2.16 7.16 2.8 3.91.79 4.92 3.62 4.92 5.22 0 5.18-4.92 6.9-9.29 6.9-4.58 0-9.28-1.53-9.47-6.93h6.04ZM115.38 6.68c6 0 10.21 4.44 10.21 10.25s-4.21 10.22-10.21 10.22-10.18-4.4-10.18-10.22 4.18-10.25 10.18-10.25m0 15.62c2.95 0 3.87-2.91 3.87-5.37s-.93-5.4-3.87-5.4-3.84 2.95-3.84 5.4.89 5.37 3.84 5.37M127.6 0h6.34v26.62h-6.34zM15.6 0h7.25v9.85h8.38V0h7.19v26.62h-7.19v-10.5h-8.38v10.5H15.6z" class="cls-1"/><path d="M0 0h8.28v9.45H0z" style="fill:#007dc5"/><path d="M0 16.83h8.28v9.79H0z" style="fill:#00a650"/><path d="M41.62 13.24c.11-2.53 1.31-4.17 3.02-5.18 1.72-.97 3.95-1.34 6.15-1.34 4.59 0 9.02 1.01 9.02 6.49v8.46c0 1.64 0 3.43.75 4.96h-6.38c-.22-.6-.3-1.19-.37-1.83-1.64 1.71-4.06 2.39-6.38 2.39-3.69 0-6.6-1.86-6.6-5.85 0-6.3 6.86-5.81 11.26-6.71 1.08-.22 1.68-.6 1.68-1.79 0-1.46-1.75-2.02-3.06-2.02-1.75 0-2.87.78-3.17 2.42h-5.93Zm8.2 10.03c3.02 0 4.03-1.71 3.88-5.7-.89.56-2.54.67-3.92 1.04-1.42.34-2.61.93-2.61 2.46s1.23 2.2 2.64 2.2ZM49.26 39.56h-1.3v9.86h1.3V44.6h2.2v-1.09h-2.2zM41.08 49.42h-1.3v3.3899999999999997h9.48v-1.09h-8.18zM40.6 39.51h3.87v1.09H40.6zM38.36 41.14h8.35v1.09h-8.35zM46.9 45.62c0-1.89-1.95-2.84-4.36-2.84s-4.36.96-4.36 2.84 1.95 2.85 4.36 2.85 4.36-.96 4.36-2.85m-7.34 0c0-1.27 1.33-1.75 2.97-1.75s2.97.48 2.97 1.75-1.33 1.75-2.97 1.75-2.97-.48-2.97-1.75M53.82 48.39h8.7v1.11h-8.7v3.29h10V51.7h-8.7v-1.11h8.7v-3.2800000000000002h-10zM58.99 41.1c1.67 2.48 5.84 2.93 5.84 2.93l.21-1.08c-5.08-.64-5.36-3.38-5.37-3.86v-.07h-1.36v.07c0 .47-.28 3.23-5.37 3.87l.2 1.08s4.17-.45 5.84-2.93Z" class="cls-1"/><path d="M59.64 43.56h-1.3v1.59h-6.11v1.09H65.6v-1.09h-5.96zM90.87 39.54h1.3v13.29h-1.3zM85.74 41.81v-.69h3.3v-1.09h-8.1v1.09h3.24v.69c.02 1.48-.31 4.93-3.98 6.48l.7.99c1.45-.56 3.23-1.82 4.06-4.35.84 2.53 2.62 3.78 4.06 4.35l.7-.99c-3.68-1.55-4-5-3.98-6.48M100.51 42.7c1.57 3.59 5.43 4.47 6.09 4.59l.23-1.14c-4.66-1.28-5.64-4.02-5.64-6.83h-1.36c0 2.82-.98 5.55-5.64 6.83l.23 1.14c.66-.12 4.52-1 6.09-4.59M93.95 50.43h13.13v1.08H93.95zM127.34 42.7c1.57 3.59 5.43 4.47 6.09 4.59l.23-1.14c-4.66-1.28-5.64-4.02-5.64-6.83h-1.36c0 2.82-.98 5.55-5.64 6.83l.23 1.14c.66-.12 4.52-1 6.09-4.59M120.77 50.43h13.13v1.08h-13.13zM117.93 39.52h1.3v7.52h-1.3zM116.13 45.94h-6.52v-1.99h6.45v-1.08h-6.45v-1.96h6.52v-1.09h-7.83v7.21h7.83zM109.49 49.14h8.43v3.67h1.31v-4.76h-9.74zM73.72 48.17h4.33v-1.09h-8.67v-2.31h8.67v-4.48h-9.97v1.08h8.67v2.31h-8.67v4.49h4.34v2.26h-5.64v1.08h12.57v-1.08h-5.63z" class="cls-1"/></g></svg>